<?xml version="1.0" encoding="utf-8" ?><svg xmlns="http://www.w3.org/2000/svg" xmlns:xlink="http://www.w3.org/1999/xlink" width="1015" height="324" viewBox="0 0 1015 324"><path fill="white" d="M0 0L1015 0L1015 324L0 324L0 0Z"/><path d="M63.5676 42.2187C71.9297 41.8408 82.3696 42.1029 90.8463 42.1008L140.733 42.0935C181.238 42.0896 222.917 41.5899 263.279 42.2015C263.239 44.7357 262.787 49.5744 264.181 51.3281C266.283 52.1318 268.718 51.6031 271.003 51.327C276.281 54.1073 281.512 57.1264 286.826 59.7952C291.167 61.9754 290.813 59.511 294.656 63.3938L295.219 63.1492L295.347 42.238C320.801 41.5011 349.314 42.123 374.962 42.1232L494.781 42.2095C495.218 48.3544 494.911 58.1776 494.911 64.7035L494.909 107.737L494.912 241.705C464.493 242.659 429.625 241.845 398.87 241.848L326.718 241.818C317.994 241.8 309.293 241.925 300.573 241.953C297.736 241.962 295.638 242.337 295.283 239.408L295.276 103.803C291.523 110.762 287.706 116.818 283.676 123.555C281.786 126.348 280.243 131.984 278.255 134.427C272.519 141.478 268.929 150.985 263.348 157.725C262.916 166.114 263.264 177.797 263.267 186.355L263.313 241.669C254.41 241.986 200.521 240.748 198.02 242.596L197.724 245.339C196.325 246.351 195.427 245.169 194.877 245.969C191.585 250.602 191.299 253.918 184.689 253.423C184.524 253.411 180.03 258.336 176.451 257.01C175.917 253.748 180.177 251.553 180.106 248.634C179.307 248.552 178.954 248.588 178.287 248.123C178.8 247.096 178.973 246.604 179.327 245.515C176.481 246.435 177.429 249.927 173.937 247.984C171.831 244.365 172.295 243.978 175.142 242.233L175.102 241.907C153.409 241.438 130.801 241.878 108.979 241.801C97.7163 241.761 79.4538 241.204 68.7265 241.866C67.0683 243.401 68.5187 244.821 67.3364 245.791C63.896 248.616 63.0792 248.56 60.5381 252.61C56.5127 253.925 52.4682 259.663 48.7961 257.71C48.4229 256.107 48.8342 255.845 49.4498 254.14C48.0051 251.195 43.6513 257.006 43.6476 242.763C42.5129 240.802 42.0536 242.74 40.2488 241.24C40.425 238.054 44.9393 235.787 43.7315 232.297C41.5543 230.631 38.789 232.742 37.0994 229.868C37.1676 225.182 43.1512 213.05 42.2115 211.398L40.1419 211.414L39.5676 210.789C39.5645 210.4 39.5819 210.011 39.6197 209.624C40.1562 204.632 41.6251 200.889 45.391 197.837C44.5325 196.444 42.8912 195.168 41.6285 194.066C41.7503 192.237 42.7309 192.57 43.6566 190.269L42.7656 188.24C43.0834 185.768 44.6796 187.591 44.9837 186.777C45.6323 185.04 44.8893 183.378 46.6119 181.805C47.4247 181.912 48.2387 182.009 49.0538 182.097C51.3338 179.235 49.5565 175.971 49.9161 174.609C51.2372 169.604 54.9287 161.234 56.7018 155.83C56.8765 155.298 59.5618 153.336 59.9823 152.823C61.3312 151.176 59.3896 150.686 59.957 148.985C60.6386 146.941 63.2237 143.439 63.3332 141.434C63.8571 131.843 63.5144 121.165 63.5167 111.552L63.5676 42.2187Z"/><path fill="white" d="M296.483 43.5744C318.895 43.1899 342.386 43.5144 364.892 43.5116L493.562 43.541C494.06 65.066 493.6 88.563 493.599 110.216L493.583 240.638C479.3 241.194 461.488 240.693 446.982 240.696L355.319 240.717C359.314 234.465 362.093 234.547 367.663 230.249C367.655 229.86 368.578 227.132 368.899 227.045C372.51 226.069 371.949 224.441 372.741 221.194C373.854 216.63 377.975 218.086 380.17 214.738C379.604 213.355 379.147 213.526 377.478 212.782L377.286 212.145C379.762 209.927 381.627 211.502 383.737 209.209L383.593 208.467C381.184 206.682 379.799 207.605 377.102 208.445L376.777 208.028L378.081 205.812C381.072 204.083 382.04 206.466 385.338 206.693L386.962 204.956L386.846 204.29C385.358 203.989 383.866 203.708 382.37 203.448L382.157 202.827C384.034 200.703 387.612 202.65 390.456 199.639C390.193 197.634 386.927 199.884 385.328 198.495C386.629 195.828 392.571 197.139 394.843 195.599C399.57 192.394 393.001 190.475 394.351 186.889C398.229 188.535 398.708 187.649 400.334 184.516C401.328 182.599 403.208 184.785 405.48 181.539C405.103 179.724 404.317 180.238 402.846 178.352C405.309 176.621 407.975 179.577 409.288 176.072C407.6 175.893 407.185 175.865 405.64 175.196L405.37 174.285L405.986 173.379C408.379 172.235 408.884 175.139 411.266 173.128L411.37 171.673C410.45 170.052 410.624 170.602 408.342 169.968L408.479 169.219C411.081 166.687 411.573 170.127 414.357 170.098C415.189 168.275 413.31 167.093 413.731 163.908C416.097 160.623 415.81 164.147 419.438 162.756L419.722 162.022L418.477 160.278C419.525 159.4 419.951 160.023 421.217 159.706C427.398 158.159 422.7 156.728 422.275 154.663C423.398 151.944 427.283 154.201 429.855 152.177C430.185 150.079 428.778 151.344 428.241 149.239C430.15 148.098 431.953 150.567 434.311 148.164C433.504 146.446 432.066 147.558 430.849 145.662C432.631 144.24 436.533 145.819 437.766 143.422C436.536 142.059 435.402 142.812 434.211 141.549C434.642 141.216 435.08 140.891 435.526 140.577C437.917 138.916 437.31 140.787 439.595 141.209C445.007 137.791 444.1 130.987 449.909 127.625C450.931 127.033 449.388 126.023 450.785 123.954C452.204 121.852 457.214 117.612 457.152 115.348C454.874 112.253 457.808 114.091 459.331 111.944L459.059 110.855C457.495 110.206 456.683 110.903 454.496 110.874L454.346 110.454C455.687 109.364 459.795 108.116 461.574 108.351L462.092 108.645C463.389 107.177 462.393 105.67 462.936 104.323C463.604 102.667 465.981 103.658 466.68 100.962C466.183 100.132 464.217 99.4615 463.213 99.0203L463.263 98.5247C465.811 98.4015 467.598 98.7983 468.939 96.4399C468.478 95.5834 468.269 95.3038 467.688 94.5585C468.757 93.2992 469.203 92.4994 470.028 91.0981C469.608 90.647 469.639 90.6452 469.5 90.0765C470.438 89.1503 470.887 88.9986 472.088 88.4462C472.589 86.6036 472.038 86.4455 471.01 84.381C471.889 83.7951 472.781 83.2272 473.683 82.6777C475.448 79.529 478.378 65.1297 478.404 61.5899C478.474 51.8351 455.277 46.831 447.822 45.9476C443.245 45.4053 434.52 46.0371 429.584 46.2067C424.854 54.3368 416.833 62.4432 411.075 70.051C409.361 72.315 407.142 74.6788 405.549 77.0249C404.416 78.6938 405.074 81.8207 403.897 83.4992C402.829 85.022 402.701 85.5304 401.044 85.9715C400.813 85.7078 399.877 84.5959 399.69 84.4332C396.946 86.824 396.64 91.2892 392.464 92.7873C391.854 93.0063 392.195 94.6864 392.319 95.5713C391.392 97.0288 388.781 98.1105 387.13 98.949C387.296 101.21 387.626 103.336 386.858 105.469C384.793 107.702 381.579 105.69 380.333 109.326L381.489 110.691C381.409 111.81 379.696 114.738 379.109 115.791C378.695 116.532 375.764 116.855 374.787 117.043C373.531 118.09 374.105 121.025 372.785 124.583C370.494 126.721 369.28 127.373 366.541 128.954C365.39 130.354 366.161 131.804 365.558 134.071C364.637 133.851 364.484 133.804 363.552 133.941C362.081 135.493 362.392 135.945 362.34 138.402L360.221 139.369C359.509 141.621 360.871 140.428 361.013 142.836C359.891 143.236 359.09 143.594 358.01 144.1C355.422 147.551 358.042 146.135 358.235 148.506C357.202 148.748 356.175 149.014 355.154 149.303L354.725 150.139C355.907 151.498 357.72 149.925 359.339 151.542C358.582 154.615 354.728 152.411 352.11 154.427L351.98 155.539C353.865 157.129 354.735 156.292 357.236 157.421C356.802 158.817 348.52 164.373 346.723 165.306C347.184 165.066 344.859 170.118 344.76 170.318C344.236 171.374 347.022 170.883 348.107 172.726C346.444 173.993 344.178 173.034 342.654 174.544C343.034 175.738 344.67 176.892 345.686 177.757C344.987 179.149 342.266 177.783 339.387 179.651L339.526 180.217C340.931 180.779 341.72 181.092 343.017 181.86C342.134 184.512 340.8 183.481 338.636 183.659L338.073 184.54C343.078 194.309 336.41 191.086 334.128 194.695L334.436 195.357C335.567 195.425 336.218 195.417 337.3 195.79C336.031 198.756 335.03 199.401 336.951 202.014L336.735 202.636L335.331 202.16C333.028 204.305 333.006 210.312 333.683 213.277C336.61 213.44 348.84 213.646 350.646 214.086L350.658 214.621C347.212 215.917 339.808 214.279 337.943 216.203C338.138 216.794 338.361 217.375 338.61 217.944C339.136 219.116 339.899 220.314 341.072 220.771C343.667 216.484 345.573 218.216 349.853 217.352C350.598 217.202 353.153 215.372 353.922 214.821C352.343 218.426 350.426 221.341 349.151 225.209C349.634 225.936 349.846 226.032 350.588 226.424L350.805 226.536C349.912 227.828 350.198 227.442 348.361 227.948C347.514 228.977 347.733 228.548 347.697 230.027L348.655 230.295C349.124 231.933 347.338 235.039 346.539 236.697L346.772 237.334C349.122 236.766 353.879 236.196 354.527 236.028C355.675 234.728 355.787 234.255 356.483 232.77C357.411 230.79 356.365 231.708 356.382 229.673C357.968 229.135 357.372 229.127 358.89 229.508C359.291 231 356.174 236.124 355.245 237.854C354.157 237.795 353.068 237.767 351.978 237.772C349.82 237.795 349.145 238.771 347.622 240.337C340.836 240.989 332.517 240.749 325.596 240.74C315.944 240.727 306.057 240.837 296.437 240.563L296.43 101.216C296.543 101.083 296.656 100.949 296.768 100.815C305.442 87.3742 305.695 83.0215 303.636 68.1736L303.326 68.078C299.641 66.9155 300.246 67.2614 296.473 65.1561C296.357 58.0803 296.468 50.6759 296.483 43.5744Z"/><path fill="white" d="M64.8791 43.5575C71.5146 43.1443 81.0318 43.4162 87.8532 43.416L130.044 43.4192L261.796 43.3865L261.827 48.7169C247.975 63.9142 235.105 79.9774 223.294 96.8092C219.35 102.354 207.842 121.847 203.641 125.513L190.653 124.616C183.815 129.469 186.524 121.826 179.359 126.036C178.267 125.805 177.356 124.51 177.16 124.47C172.859 123.595 154.917 126.105 152.082 124.896L151.947 124.081C153.67 120.892 157.325 116.299 159.459 112.781C166.377 101.173 176.195 86.4886 176.456 72.5905C176.724 58.3606 162.836 55.1474 151.86 52.8915C144.617 51.4029 143.635 49.4421 135.459 49.6305C132.75 51.0824 129.144 54.4364 126.754 56.4317C113.074 67.8517 103.105 81.6982 93.6785 96.6369C89.6585 103.008 86.3315 106.513 83.2211 114.011C77.4734 117.613 77.496 124.178 72.9088 126.157C71.3445 129.373 70.8716 131.984 68.3757 134.809C65.5301 138.029 65.8423 137.51 66.0762 141.492L65.3729 141.989C64.5882 140.933 64.8804 52.9373 64.8791 43.5575Z"/><path fill="white" d="M175.547 173.83L177.431 174.005C178.64 175.518 178.279 180.433 177.035 182.164C176.916 182.33 175.141 182.076 174.757 182.037C173.457 183.093 173.852 182.692 173.216 184.451C174.467 186.159 174.854 184.549 176.792 185.916L176.412 186.999C175.554 187.173 174.849 187.336 174.003 187.562C173.471 189.603 174.772 190.971 174.282 191.498C169.853 196.264 169.218 204.063 165.77 209.778C164.781 211.417 164.275 213.282 163.577 214.999C163.56 215.039 164.217 216.103 164.102 216.984C161.654 217.901 161.614 218.521 160.872 220.871C161.956 220.574 161.576 220.519 162.432 220.885C162.585 221.926 162.815 222.712 163.31 223.647C163.658 224.303 157.47 234.5 157.304 237.028L157.801 237.075C159.825 235.399 162.937 230.908 164.629 228.632C163.816 230.143 162.36 232.482 162.239 234.072C164.622 234.36 168.345 230.199 170.993 228.721C170.583 230.147 169.141 232.42 168.351 233.781C170.279 233.303 174.017 233.162 176.135 233.021C177.456 232.22 179.411 229.446 180.809 227.972L181.47 227.993C181.199 230.5 178.46 232.811 177.534 235.353C176.687 237.68 177.714 238.761 176.576 240.447C173.588 240.967 163.742 240.682 160.129 240.677L124.645 240.646L92.2863 240.669C88.9679 240.674 72.1544 241.187 70.8803 239.737C71.4098 236.074 75.5761 237.422 77.0794 234.987L75.5307 234.57L75.5737 233.915C77.0074 232.825 76.5204 233.139 78.8128 233.338L79.711 232.499L79.4856 230.536L81.3567 229.986L81.6764 229.068L81.0384 228.154C82.1473 225.425 91.1517 221.005 89.3722 217.664L85.9032 216.726L86.4205 215.922C87.8498 214.96 89.9084 215.515 92.1074 215.383C94.2551 213.99 95.2556 209.638 97.0241 207.2C98.4815 205.191 99.2175 205.21 100.726 203.151L100.477 202.34L97.9717 202.048L97.6807 201.454C99.5295 200.84 101.989 200.241 103.553 199.056C108.293 195.464 107.81 186.577 115.255 183.852C127.4 179.407 168.13 179.67 175.381 173.965C175.437 173.921 175.492 173.875 175.547 173.83Z"/><path fill="white" d="M260.943 159.429C261.001 159.486 261.065 159.538 261.119 159.599C262.491 161.172 261.781 232.763 261.775 240.537C241.403 241.093 220.435 240.185 200.017 240.766L202.651 237.798C203.183 235.877 202.348 235.936 202.095 233.775L203.439 232.124C205.015 231.586 206.255 231.202 207.867 230.767C208.288 229.2 207.281 230.286 206.866 228.281C208.817 226.494 210.875 224.702 212.443 222.556C213.354 222.959 213.61 223.117 214.647 223.113L215.226 222.144L214.99 221.257C214.059 220.843 213.424 220.549 212.537 220.044C213.388 218.649 214.274 218.955 215.958 217.509L215.892 215.495L216.573 214.95C217.683 215.294 218.158 215.442 219.312 215.591C220.992 214.506 221.79 211.61 222.854 210.093C223.104 209.737 223.807 210.333 224.815 208.766C223.999 207.899 223.717 207.59 223.071 206.584L223.655 205.844L226.522 205.622C227.867 204.712 227.656 205.113 228.301 203.769C227.686 203.137 227.375 202.855 226.915 202.071C228.261 200.31 230.524 201.055 231.737 199.968C234.008 197.933 235.511 194.109 237.544 191.734C238.908 190.14 239.929 189.773 241.311 187.984C240.91 187.132 240.654 186.926 240.014 186.282L240.297 185.642L243.246 185.243C244.389 184.247 244.055 184.633 244.444 182.997L243.991 182.528L241.193 182.726L240.66 182.176C244.283 179.319 247.91 176.166 251.548 173.238C251.742 172.299 251.542 171.962 251.178 171.105L251.054 170.819C252.146 169.549 254.054 169.694 254.416 169.287C255.879 167.645 260.138 161.505 260.943 159.429Z"/><path fill="white" d="M385 161.012L385.119 161.031C386.093 163.069 382.823 167.852 381.813 170.715L377.375 171.658L376.764 171.093C377.561 169.884 377.644 171.33 379.659 169.672C380.441 166.613 377.815 166.488 379.956 164.476C380.919 164.685 381.373 164.863 382.331 164.541C382.894 162.877 382.884 163.553 382.314 161.846L382.62 161.342L385 161.012Z"/><path fill="white" d="M401.253 157.544C402.44 157.504 402.016 157.355 402.88 158.047C403.151 160.399 398.435 166.387 397.243 166.653C395.521 166.063 395.963 166.488 395.187 165.064L395.435 165.906L394.87 165.141C396.39 164.456 396.667 164.311 397.881 163.185C398.432 161.441 398.407 162.123 397.563 160.199C398.029 158.982 400.004 158.206 401.253 157.544Z"/><path d="M527.454 41.7486C536.975 41.3622 548.057 41.6358 557.694 41.635L612.732 41.6263C650.251 41.6209 689.952 40.9043 727.167 41.7549C727.156 44.0206 726.857 52.0453 727.551 53.5826C729.282 52.9618 730.735 52.486 732.505 51.9815C733.849 52.6759 733.736 53.2528 734.427 54.8902C735.826 55.2023 737.285 55.4171 738.702 55.6484C742.491 54.3285 738.181 50.6997 746.081 54.7209C746.489 54.9285 758.276 54.6912 759.775 54.6829C759.73 51.6926 759.026 43.8986 760.75 42.049C763.454 41.2786 956.973 41.4633 958.978 42.1272C959.701 43.6723 959.494 45.7618 959.468 47.516L987.209 66.5871C992.175 69.9527 997.972 73.4432 1002.65 76.8995C1002.84 79.2651 1003.43 83.3814 1002.68 85.4104C999.687 87.9114 965.348 99.2409 959.454 101.337L959.514 157.298C964.172 164.556 970.53 167.741 971.522 178.876C972.542 190.307 966.344 202.539 959.369 211.149C959.64 220.958 959.474 231.474 959.489 241.336C941.874 241.972 922.66 241.164 904.799 241.507C904.023 242.178 904.249 241.997 903.972 243.158L902.067 243.274C900.298 242.735 899.873 241.794 898.862 240.272C897.527 239.938 898.072 239.895 896.809 240.427C897.528 240.841 897.57 241.041 897.916 241.808C897.016 243.202 896.988 244.025 896.432 245.598L895.321 246.102C893.066 245.201 893.656 244.002 891.88 243.138C891.63 244.887 891.587 245.402 890.85 246.989C888.831 247.585 888.887 245.685 888.349 245.798C882.641 246.997 883.34 243.655 881.19 242.74C880.733 243.765 881.281 247.848 881.398 249.291C880.117 248.287 877.753 246.205 876.296 245.911C875.089 246.987 875.347 247.699 875.07 249.589L874.048 250.035C865.328 249.305 870.067 244.388 867.829 242.316L867 242.762C865.963 245.552 868.206 249.489 866.07 251.225C864.12 250.582 860.895 249.877 859.532 249.372L858.149 245.943C854.708 245.811 851.105 245.519 847.656 245.294C847.768 247.499 847.898 251.423 846.228 253.03L845.398 252.502C844.343 250.539 844.461 247.366 844.374 245.044C842 248.629 842.631 248.997 842.216 253.386L841.478 253.489L839.955 251.711C834.87 249.708 834.705 252.069 831.772 252.126C830.753 250.855 830.67 249.01 830.425 247.36C828.726 247.304 820.157 246.942 819.111 247.633C818.185 249.174 818.103 252.045 817.92 253.938L817.313 254.409C814.617 252.93 816.184 249.778 811.152 247.48C807.574 245.845 809.116 248.278 807.801 248.942C805.822 249.942 801.953 248.774 799.396 249.77C798.801 251.431 800.059 250.57 799.711 252.535C798.613 253.225 795.122 252.939 793.72 252.838C793.078 253.462 793.025 253.776 792.788 254.61L792.714 254.876C791.51 254.539 791.146 253.232 790.37 251.872C790.738 251.199 791.109 251.136 791.837 250.831L792.113 250.717C790.684 247.581 789.941 250.249 787.005 248.888C785.524 245.692 787.585 243.284 786.056 241.411C784.383 241.256 784.022 240.926 782.786 241.699C782.731 243.83 785.825 245.146 784.641 252.221C784.455 253.331 783.905 254.308 783.037 254.978C782.169 254.002 782.407 249.531 780.746 247.741L779.8 247.727C778.854 248.666 779.165 251.012 779.093 252.794L778.526 253.008C777.002 251.636 774.223 244.815 771.433 241.378L759.719 241.262C760.474 191.344 759.791 139.648 759.792 89.6032C757.898 90.2077 756.043 90.9907 754.292 91.9301C752.327 92.9841 753.665 91.6354 751.586 91.9708C751.364 92.9833 751.266 93.4089 750.88 94.3909L749.881 94.6604C748.982 93.9615 748.707 93.6407 747.965 92.8016C745.61 93.4493 745.1 98.3127 738.076 96.3711C732.66 94.8741 731.066 99.5663 727.284 102.637C726.691 117.808 727.16 135.544 727.164 150.978L727.173 241.299C708.13 241.869 686.618 241.404 667.412 241.404L578.778 241.364L578.462 241.996C579.334 242.462 580.157 242.824 581.058 243.224C581.35 244.852 580.21 246.646 578.945 247.604C577.328 248.186 576.813 247.9 575.142 247.338C573.922 248.807 575.324 249.361 574.947 250.07C574.046 251.764 569.672 255.026 568.075 255.893L567.4 255.656L567.472 253.965L566.845 253.87C565.912 254.608 564.974 255.339 564.029 256.063L563.437 255.609C564.024 251.809 570.892 246.342 573.711 242.144L573.558 241.566C571.2 241.091 569.96 243.519 567.395 243.186C567.184 242.308 567.172 241.977 566.455 241.416C564.684 241.715 561.911 244.153 560.388 245.353L560.489 244.519L561.022 244.454L560.815 243.863L562.784 241.404C550.998 241.478 539.211 241.439 527.425 241.285C527.148 216.97 527.407 192.051 527.405 167.682L527.454 41.7486Z"/><path fill="white" d="M760.75 42.049C763.454 41.2786 956.973 41.4633 958.978 42.1272L957.865 42.9868C957.975 44.3238 958.285 46.7292 957.482 47.7158C945.464 47.8747 935.577 48.2812 923.601 50.8535C922.43 50.9557 919.094 53.834 918.322 53.8172C902.879 53.4801 881.98 66.8813 867.409 67.5449C867.207 67.7842 865.794 69.3844 865.796 69.384C849.908 72.7353 831.631 91.6046 843.281 108.203C849.699 117.617 856.44 127.07 863.49 136.035C870.499 144.947 885.348 149.026 895.289 154.118C899.156 156.098 903.91 156.268 908.138 159.017C908.957 160.259 909.479 161.298 909.617 162.802C909.945 166.382 908.13 170.047 905.871 172.708C893.284 187.531 829.68 196.515 809.124 199.915C807.778 200.138 797.313 202.722 796.931 202.624C796.362 202.479 795.578 201.461 794.929 201.473C792.588 201.514 790.428 205.331 788.205 205.434C787.897 205.448 786.525 203.929 786.214 203.624C783.987 203.109 781.798 205.038 779.982 206.17C777.721 207.581 777.981 206.348 774.657 205.541C771.951 206.18 773.955 206.739 772.072 207.732C769.919 208.869 764.232 210.32 762.662 211.874C762.997 213.205 763.778 212.923 765.459 214.001C765.23 215.209 765.137 215.562 765.229 216.788C769.141 218.693 786.041 211.684 790.641 214.274C791.485 215.585 792.106 216.008 791.973 217.33C789.228 218.723 787.855 221.469 786.691 221.804C782.718 222.949 781.504 222.671 776.971 224.398L775.154 223.108C773.417 222.951 774.065 222.841 772.489 223.72C771.77 225.393 771.831 224.708 772.194 226.458C773.676 227.733 775.978 227.31 778.722 227.937L778.804 228.406C777 228.372 772.922 228.183 771.351 228.528L771.51 229.71C772.385 231.158 776.056 235.045 777.698 235.207C779.031 235.338 780.211 234.917 781.832 235.366C782.382 236.704 781.81 239.274 780.667 240.192L780.196 239.602L780.911 237.558C777.993 235.07 774.277 239.615 773.5 239.807C770.703 240.495 764.288 240.267 761.238 240.25L761.277 88.9581C765.454 86.1689 787.195 79.5506 787.718 78.5685L786.446 78.2205L786.305 77.672C788.458 72.6663 788.089 73.9723 791.85 72.059L791.858 71.1448C789.699 69.8753 787.082 71.7573 785.245 70.543L787.511 69.9037C788.43 68.8975 788.308 69.3313 788.278 68.1413C784.417 67.2648 787.494 67.3814 786.873 64.7065C784.983 63.1901 781.82 65.5613 779.709 63.3097C780.057 58.6882 786.762 57.1958 787.037 53.5163C784.867 51.7239 765.001 53.9422 761.238 54.4491C761.27 50.6671 761.234 46.8849 761.132 43.1041L760.75 42.049Z"/><path d="M760.75 42.049C763.454 41.2786 956.973 41.4633 958.978 42.1272L957.865 42.9868C936.814 43.3184 915.14 43.0624 894.018 43.0619L761.132 43.1041L760.75 42.049Z"/><path fill="white" d="M720.655 100.019L721.884 100.981C723.037 100.829 724.1 100.557 725.23 100.29C726.007 103.695 725.702 134.922 725.701 140.017L725.68 240.191L619.495 240.169C609.448 240.175 596.156 240.375 585.838 240.038C585.047 240.013 584.553 238.834 584.13 238.122C584.957 237.662 585.737 237.291 586.589 236.885L586.53 236.129C585.534 235.632 584.541 235.128 583.551 234.619L583.924 234.095L584.328 234.177C586.707 234.674 592.188 233.478 591.455 230.539C589.649 230.878 587.295 231.466 585.524 231.242C587.464 227.378 592.3 228.969 593.368 228.547L593.664 227.621C591.792 224.46 587.166 227.846 583.735 226.251C587.861 224.651 599.898 224.15 600.936 218.998C600.005 218.822 598.862 218.606 597.507 218.35C595.619 216.717 596.613 217.118 594.044 216.75L594.149 216.308L595.399 215.557C596.836 215.408 598.081 216.488 599.33 217.313C600.705 217.161 600.284 217.407 601.153 216.462C600.23 215.433 599.928 215.121 599.305 213.898C600.644 211.273 606.534 212.617 607.77 209.804C606.352 208.6 606.149 208.425 606.954 206.834C608.418 205.763 610.267 205.57 612.068 205.213L612.152 204.522L609.871 203.372L609.674 202.681C610.829 200.903 612.924 200.435 615.035 199.511L615.349 198.658L613.7 196.773C614.432 194.934 616.478 194.863 618.151 194.804C620.136 193.4 618.387 192.215 619.441 191.468C622.324 189.424 623.061 190.73 622.646 186.374C623.639 186.125 623.891 186.01 624.782 185.582L624.955 184.574L623.52 183.047L623.705 182.283C631.245 179.002 633.756 174.895 639.441 169.11L639.277 168.691L638.044 168.602L637.856 168.004C638.937 167.289 639.88 166.715 641.005 166.069C641.263 164.14 640.092 165.206 639.719 163.414C642.07 162.349 642.98 162.76 644.543 161.203C643.719 159.747 639.997 161.118 639.262 158.761L639.93 157.788C642.217 156.842 645.057 157.53 646.237 157.235C648.171 156.751 654.433 151.447 655.659 149.807C655.37 148.983 655.303 148.811 655.262 147.941C656.266 147.303 657.089 146.739 658.05 146.039C658.469 143.626 657.456 145.26 656.673 142.991C658.685 143.183 660.382 143.569 661.633 141.691L660.329 140.183C660.931 139.519 663.369 139.1 664.793 138.476C665.589 136.714 664.829 137.281 664.382 135.275C663.572 131.649 667.24 132.821 669.002 130.872C670.615 129.088 668.57 127.326 669.749 125.138L670.224 125.073L670.411 126.129C672.057 125.843 672.617 124.815 673.782 123.561C674.936 122.32 674.377 120.001 675.13 118.742C677.033 115.56 680.093 112.174 682.496 109.347L682.817 109.347C684.627 109.337 686.294 109.757 687.891 108.533C690.774 106.322 695.448 106.015 698.882 106.871C699.532 107.034 699.955 108.241 700.334 108.898C702.701 108.535 700.82 107.222 703.814 106.243C704.751 107.042 704.975 107.34 706.21 107.424C707.862 106.708 715.729 103.485 716.512 102.577L715.776 101.153C716.938 99.7221 717.277 101.118 720.655 100.019Z"/><path fill="white" d="M722.017 42.8532C722.713 42.8114 723.765 42.908 724.489 42.9508C726.65 45.2985 725.753 51.0541 725.671 54.6819C724.146 53.8805 720.647 51.7895 719.188 52.6367C715.22 54.9407 715.623 55.5455 712.632 52.253C700.398 51.0353 686.656 51.9952 673.558 51.3116C641.287 49.6272 601.383 41.9908 570.679 55.1349C558.253 60.328 558.026 70.4084 555.243 81.4697C553.161 89.7432 549.14 91.713 561.098 94.3532C564.139 97.3532 565.448 101.939 570.393 102.71C573.224 103.151 573.861 102.573 576.615 103.807L576.769 103.877C578.454 102.978 577.93 101.614 579.358 100.061C580.272 99.0837 582.078 101.342 583.624 101.374C588.896 101.486 605.872 98.5578 609.084 102.347C608.685 105.485 606.875 103.025 604.391 104.953L604.471 106.616C602.06 109.343 599.294 112.329 596.958 115.603C593.025 121.241 590.748 128.854 585.681 133.505C585.498 133.542 583.918 134.713 583.916 134.726C583.029 139.013 580.909 142.63 578.267 146.191C574.921 150.703 573.498 155.095 572.094 160.535C572.058 160.674 568.186 163.343 568.009 164.421C567.731 166.115 568.938 165.783 568.458 167.458L566.674 167.655L566.121 168.437L567.007 170.159C566.348 170.386 565.83 170.517 565.153 170.682C564.163 178.278 562.891 175.657 559.606 181.792C559.469 182.047 560.66 183.571 560.98 184.039C560.436 185.252 558.943 185.646 557.351 186.934C556.69 189.503 557.96 187.99 557.738 190.428C556.948 190.621 556.159 190.819 555.372 191.023L555.093 191.993C555.795 192.7 556.135 192.953 556.925 193.532C556.183 194.827 556.234 194.457 554.328 195.001C553.083 196.676 549.542 206.187 548.313 208.96C546.554 212.933 544.735 216.503 542.81 220.433L543.79 222.205C543.369 224.127 543.033 223.527 541.048 225.057L541.018 226.087C541.734 226.103 542.449 226.124 543.165 226.15C544.038 229.328 540.23 229.877 543.826 232.193C545.892 232.032 544.44 231.93 546.37 230.238L547.774 232.039C549.216 232.484 549.352 232.153 550.575 231.972C555.63 231.222 552.192 229.079 554.34 225.648C556.125 224.539 557.547 224.526 559.612 224.299L560.133 223.19L560.627 223.172C561.332 226.299 557.993 228.635 559.729 232.319L560.631 232.639C562.635 231.662 562.763 228.966 564.685 227.982C565.251 229.398 562.723 231.323 563.305 232.899C564.513 236.172 563.699 236.073 561.276 237.948C560.964 239.65 562.019 238.474 562.304 239.988C557.459 241.036 535.365 240.19 528.877 240.199L528.848 42.94C592.805 42.2176 657.955 42.9441 722.017 42.8532Z"/><path fill="white" d="M956.873 102.109L957.983 102.016C958.244 102.559 958.093 151.138 958.354 156.411C948.777 145.223 941.902 142.007 928.961 135.614C924.016 133.194 918.575 131.803 913.587 129.416C911.458 128.397 907.577 126.587 906.781 124.164C906.634 123.715 906.57 123.543 906.818 123.113C907.657 121.665 952.873 103.053 956.873 102.109Z"/><path fill="white" d="M957.931 212.502C958.422 213.055 958.159 237.251 958.152 240.217C951.113 240.226 914.741 241.1 910.617 239.942L910.876 237.454L911 236.992C911.571 237.395 912.882 238.336 913.531 238.282C921.56 237.611 922.174 236.404 928.515 232.582C929.928 231.73 935.609 229.805 937.923 228.611C943.717 225.621 948.351 222.043 953.47 218.058C957.435 214.972 954.069 216.054 957.931 212.502Z"/></svg>