<?xml version="1.0" encoding="utf-8" ?><svg xmlns="http://www.w3.org/2000/svg" xmlns:xlink="http://www.w3.org/1999/xlink" width="2450" height="622" viewBox="0 0 2450 622"><path fill="#FFFEFE" d="M0 0L2450 0L2450 622L0 622L0 0Z"/><path fill="red" d="M274.065 78.9992C289.879 78.6096 294.392 82.9911 308.669 86.6912C323.631 90.5688 355.955 95.3855 365.414 109.778C390.208 147.503 347.61 205.375 328.67 238.075C325.342 243.5 312.257 259.271 311.736 264.927C317.969 268.074 343.351 264.07 350.824 264.618C359.611 265.261 373.583 260.472 379.248 267.809C380.475 269.397 385.053 265.115 385.573 265.023C391.528 263.973 396.373 268.976 402.111 268.925C420.589 254.026 441.092 283.928 451.495 251.436C451.717 250.741 458.889 246.389 459.033 245.845C459.39 244.642 460.128 239.444 460.802 238.713C473.594 226.349 480.678 207.936 491.106 194.659C516.755 162 539.376 126.683 568.712 97.0418C570.358 95.3744 580.107 81.4179 581.407 81.3984C603.757 81.0633 623.608 95.9124 643.129 104.111C649.547 106.807 653.581 111.254 660.442 109.99C662.427 109.625 674.293 125.508 678.291 126.48C680.129 126.793 687.085 127.259 687.644 129.658C692.802 151.82 693.981 177.531 677.994 195.891C677.606 196.337 675.014 203.809 674.175 205.145C663.144 222.704 654.84 244.651 640.265 259.246C639.332 260.179 639.667 261.176 640.022 262.576C641.201 267.241 634.164 269.467 632.263 273.398C631.585 275.303 631.093 285.644 629.699 287.731C623.624 296.825 614.748 306.038 608.097 314.839C604.732 319.291 601.918 330.15 598.686 334.266C590.219 345.049 578.53 355.422 570.293 366.24L571.421 369.7C568.603 376.627 558.361 374.272 556.871 380.037C558.469 381.661 558.849 382.05 560.022 384.016C557.87 387.893 547.501 391.277 543.657 393.979C541.693 395.359 542.149 397.501 542.05 400.056C541.04 401.799 540.118 402.672 538.315 403.489C531.419 406.612 533.942 407.006 527.448 405.046L526.32 405.988C530.056 408.9 537.709 404.53 541.126 409.957C539.17 417.364 536.886 412.027 531.704 415.631C529.769 420.26 533.567 416.678 533.957 422.466C532.079 425.872 525.816 427.265 524.111 429.79C520.357 435.353 516.876 445.61 512.16 450.157C509.651 452.576 500.63 453.676 498.157 456.399C499.935 457.738 501.122 458.344 501.628 460.49C498.218 468.311 493.99 463.154 488.48 467.247C488.581 472.146 491.719 469.047 493.407 473.605C491.185 477.268 488.374 475.34 487.408 477.37C485.505 481.371 485.049 484.305 481.788 487.987C478.171 489.537 477.435 488.518 473.001 487.238C470.659 488.213 471.092 487.625 470.073 489.535C474.608 498.448 465.748 493.136 461.949 501.051C464.433 504.493 466.052 501.407 469.04 504.46C468.714 507.141 469.197 506.349 467.395 508.048L462.975 506.383C458.366 508.436 457.513 516.879 450.699 517.619C449.205 517.781 448.682 518.821 447.841 519.97C448.029 523.702 448.64 523.491 451.583 526.613C449.544 528.403 439.797 528.821 436.875 533.441C433.182 539.281 438.757 537.967 439.608 542.302C436.963 547.423 431.038 549.355 427.387 553.62C425.453 555.879 425.812 562.143 424.539 563.353C423.533 564.308 419.695 563.078 417.827 564.944C414.371 568.397 412.941 574.36 409.416 578.165C405.792 582.079 400.9 582.362 396.565 585.025C392.353 587.613 388.221 592.674 383.692 594.381C381.036 595.383 377.345 595.296 374.512 595.424C373.824 593.36 375.764 588.476 376.937 585.897C379.37 580.548 383.063 574.093 385.879 568.826C387.655 568.151 389.132 567.589 390.311 567.141C393.375 560.321 388.286 563.78 386.315 554.715L385.378 554.418C381.759 560.446 385.046 556.766 386.156 563.667C386.601 566.434 384.736 566.952 383.536 566.728C383.624 566.744 383.428 569.781 381.368 571.928L378.997 571.175C378.66 567.978 380.497 567.7 382.166 563.518L379.985 563.007C376.358 565.434 376.289 566.557 373.928 570.31C370.783 571.295 371.549 570.915 367.744 569.761C365.342 566.945 364.837 560.886 363.876 556.854L366.367 553.673L367.346 553.531L368.76 556.818L370.771 557.304C376.842 553.027 375.948 542.663 378.154 536.143C379.658 531.695 387.912 523.147 387.459 518.81L386.299 518.058C382.751 520.457 380.527 525.631 377.531 529.532C370.625 532.844 363.465 533.65 355.9 534.381C355.231 531.312 360.62 527.194 361.429 521.59L360.214 520.614C350.54 521.433 351.981 531.634 343.311 535.921C340.149 535.868 341.011 536.342 338.849 534.54C339.303 529.302 344.769 525.728 345.434 520.668C339.421 519.067 333.862 541.681 325.883 544.147L325.212 543.036C326.595 537.165 338.403 516.645 341.699 510.32C341.817 506.535 342.047 504.83 340.691 501.197L339.001 500.667L335.552 503.599C333.558 496.279 340.746 495.865 344.655 493.554C344.07 492.091 342.342 487.51 342.829 486.344C348.656 472.381 356.507 458.77 361.769 444.366C361.368 442.424 361.029 440.783 360.752 439.443C362.69 435.119 364.995 436.316 368.8 431.138C369.421 427.088 367.793 425.351 366.234 420.815L367.096 419.376C369.768 420.124 370.559 420.355 373.316 420.431L374.854 418.844C374.969 415.951 375.342 416.628 374.048 414.371C371.46 414.226 368.876 414.026 366.296 413.77L365.592 412.338C367.064 409.325 367.395 408.701 370.111 406.758C372.441 406.746 373.133 406.854 375.422 407.314L378.141 405.218C379.802 400.708 377.006 399.957 377.482 395.012C377.806 391.642 379.901 391.705 379.783 387.955L378.375 387.101C368.735 387.118 359.019 391.243 349.277 391.815C344.038 392.123 343.4 392.878 339.934 396.656C335.133 397.054 333.706 393.415 329.419 393.646C329.268 393.654 329.118 393.667 328.968 393.676C323.292 394.016 319.311 397.729 313.994 398.571C307.735 399.562 301.037 398.766 294.698 399.387C283.024 400.532 219.996 408.596 215.151 413.449C210.246 418.363 199.456 432.859 196.841 439.139C196.065 441.003 196.274 443.579 196.297 445.588C189.942 453.596 178.417 450.919 176.236 456.602C179.661 456.776 183.035 456.293 185.144 458.896C183.595 464.319 178.625 463.23 175.14 469.77C172.564 474.604 167.844 483.417 164.812 487.848C157.185 492.088 153.421 483.919 146.256 493.29C147.429 495.205 152.798 494.262 157.065 496.533C156.716 499.757 154.486 499.756 152.281 502.199C152.36 502.111 151.782 507.215 151.63 507.406C148.016 511.962 136.018 515.986 133.477 520.117C134.888 521.038 136.107 521.308 137.7 521.782L137.872 523.4C134.58 527.948 136.373 523.047 131.158 526.192C130.988 527.746 131.493 528.282 132.305 529.652L132.61 530.162C129.632 535.793 122.886 530.404 120.817 536.82C122.734 537.044 124.529 536.99 125.923 538.181C122.936 542.781 117.088 539.669 110.868 547.419L111.961 550.362C111.064 552.968 107.452 554.004 104.262 555.774C102.395 559.158 103.306 559.031 104.011 563.56C100.376 568.292 97.2907 567.018 94.0976 570.045C88.547 575.307 65.2342 608.802 56.3902 595.151C56.8592 592.27 57.8666 590.438 59.0911 587.832C57.5887 583.428 50.7565 583.097 47.6274 579.926C47.7848 580.086 47.0675 573.418 46.029 572.855C43.8168 571.656 43.6155 572.161 42.2694 570.013C43.3308 566.387 44.5821 563.023 45.8734 559.478C42.3297 556.92 40.3814 559.37 36.3187 557.089C35.7551 552.217 43.6788 543.684 45.864 535.885C44.7183 528.853 24.7377 534.53 27.63 526.519C31.7839 515.014 33.758 501.442 39.3248 490.914C40.6672 488.375 43.5769 488.557 42.2476 483.075C40.1179 481.799 37.7887 482.488 34.9197 482.684L33.9598 481.144C34.0113 477.301 36.605 471.808 38.1246 468.046C34.7793 457.673 44.1565 456.286 48.7258 445.938C46.644 442.177 41.1158 442.937 38.9026 439.548C39.0437 436.085 42.1628 434.607 44.0312 431.695C45.3272 429.675 42.9987 427.85 41.8139 423.445C43.4721 419.34 49.8925 421.247 48.939 410.309C48.4287 404.455 55.8897 407.342 59.472 404.982C63.2212 398.211 61.4196 395.384 59.4509 388.011C62.0642 381.112 66.2657 365.752 70.676 361.574C75.4296 357.071 74.244 345.988 77.2313 340.127C78.8501 336.952 82.6786 338.895 86.0267 333.994C86.2616 330.841 85.5812 328.962 84.766 325.959C85.942 318.405 90.8859 324.733 91.0357 309.465C94.1211 306.218 95.8664 309.712 99.6403 307.042C100.67 303.233 100.024 303.112 99.0502 299.017C99.5299 294.662 107.867 289.626 110.032 286.419C114.341 279.2 114.093 271.853 120.226 265.591C124.489 261.238 133.395 253.838 132.879 247.55C132.285 240.309 141.7 242.173 145.261 235.721C150.268 226.649 149.648 214.417 159.414 209.071C163.413 206.845 165.433 202.096 167.346 197.763C172.877 185.237 181.718 174.441 189.675 163.398C208.376 137.073 228.663 112.694 254.48 93.0127C260.567 88.3488 266.767 81.6262 274.065 78.9992Z"/><path fill="#FFFEFE" d="M542.42 374.797C547.246 374.682 552.197 375.103 552.59 380.468C549.353 380.942 546.384 381.685 543.329 380.526C541.575 377.796 542.069 378.718 542.42 374.797Z"/><path fill="red" d="M2287.51 79.4978C2290.71 78.4286 2315.55 79.0716 2318.41 80.5676C2335.75 89.6401 2351.44 101.858 2367.25 113.233C2377.79 120.822 2389.49 127.479 2399.88 135.489C2406.84 140.676 2414.91 144.494 2422.6 150.396C2423.99 155.337 2425.22 166.71 2424.56 171.74C2418.44 178.547 2392.28 184.124 2383.16 187.931C2354.46 199.919 2324.42 208.696 2294.51 217.112C2290.51 218.236 2285.85 223.232 2281.86 224.636C2250.7 235.598 2220.85 250.219 2189.79 261.546C2187.14 262.515 2185.75 265.645 2185.17 268.105C2188.74 277.746 2228 291.231 2237.35 295.464C2247.19 299.923 2261.36 306.657 2270.72 311.874C2281.65 317.969 2291.73 325.485 2300.69 334.226C2310.59 343.722 2313.27 348.64 2321.1 357.381C2338.32 376.609 2345.52 381.755 2347.46 409.344C2347.92 415.915 2345.65 422.785 2344.65 428.713C2341.16 449.219 2331.67 463.361 2319.38 479.677C2318.08 481.398 2316.72 487.627 2315.31 488.274C2310.93 490.293 2310.31 488.134 2306.71 491.834L2307.41 496.446C2289.82 509.06 2273.48 522.485 2253.97 532.4C2251.6 533.604 2249.61 528.514 2243.32 531.806C2243.09 533.649 2242.83 535.488 2242.55 537.323C2236.77 541.992 2230.37 535.972 2228.09 544.577C2225.04 547.094 2221.16 545.218 2220.55 545.805C2216.58 549.574 2211.63 550.57 2206.4 551.621C2203.16 552.274 2201.54 546.777 2196.34 546.288C2193.43 549.888 2197.14 551.057 2194.27 555.455C2190.76 556.181 2185.41 553.744 2181.8 552.443C2176.24 553.958 2180.72 559.767 2178.59 562.921C2171.42 562.525 2170.71 561.486 2166.53 555.765C2163.31 554.807 2164.43 554.992 2160.67 556.508C2162.81 557.184 2162.16 556.678 2163.35 558.269C2162.96 561.942 2161.79 567.904 2158.66 569.988C2154.68 568.676 2155.32 567.051 2151.72 562.957C2145.95 562.859 2148.4 567.446 2146.48 572.384L2144.58 572.633C2141.13 566.928 2136.74 569.228 2130.28 569.75C2128.12 566.804 2126.87 565.005 2124.19 562.443L2122.38 562.707C2120.71 565.833 2122 571.501 2121.77 576.03C2119.85 575.74 2114.12 570.683 2112.03 569.047C2104.69 571.297 2109.44 574.024 2106.05 579.616C2090.32 582.753 2095.19 567.259 2090.03 561.224L2088.16 561.173C2082.85 567.019 2088.21 575.616 2085.94 582.548C2081.44 583.488 2082.3 579.385 2078.41 580.072C2066.9 582.104 2070.59 572.333 2065.49 569.025C2055.37 571.105 2048.92 566.287 2041.34 568.398C2036.93 574.206 2041.96 584.147 2035.42 587.579C2032.07 583.994 2033.64 573.242 2030.04 569.89C2026.15 573.975 2026.34 583.526 2025.63 589.31C2021.73 587.72 2022.97 584.636 2019.53 583.15C2018.21 582.581 2016.83 584.67 2012.64 583.105C2009.21 579.64 2010.06 581.256 2009.75 575.956L2008 574.911C2003.88 577.546 2006.36 583.63 2001.94 587.317C2000.32 586.502 1998.06 577.568 1996.69 574.197C1994.35 572.392 1995.15 572.902 1991.52 573.193L1991.1 574.284C1992.51 576.112 1993.87 577.983 1995.17 579.895L1994.24 580.788L1991.47 580.717C1988.93 578.712 1989.54 578.127 1988.9 574.345C1986.05 571.765 1973.46 572.859 1968.93 572.996C1964.13 576.266 1966.74 584.024 1964.75 590.307L1962.55 590.093C1957.22 586.06 1963.17 582.322 1960.83 578.285C1956.2 576.611 1947.26 572.988 1942.74 572.686C1940.57 580.296 1928.28 576.454 1921.42 578.794C1917.86 583.641 1924.14 583.926 1918.65 589.155C1911.5 585.546 1909.2 584.957 1903.26 590.152L1901.54 589.281C1899.47 585.932 1899.19 586.684 1899.57 583.515L1902.82 581.784L1903.05 580.518C1896.35 574.23 1896.8 580.184 1890.22 578.505C1886.82 574.426 1889.81 572.37 1891.15 568.885C1891.34 568.401 1887.98 566.862 1887.2 562.692C1891.57 555.246 1892.59 561.395 1897.28 557.862L1896.88 554.57C1893.81 555.033 1892.47 555.363 1889.38 554.72C1887.16 552.581 1887.18 551.291 1886.65 548.182L1885.81 547.791C1883.96 549.968 1880.8 552.997 1880.68 555.64C1882.79 556.566 1883.96 556.657 1886.22 556.996L1886.63 558.566C1885.37 559.456 1884.4 559.987 1883.08 560.73C1881.55 564.12 1882.79 584.729 1881.9 591.827L1880.91 591.894C1877.91 585.911 1877.08 578.687 1873.32 573.637C1871.06 573.63 1869.75 575.179 1868 576.695C1866.24 581.531 1870.09 579.529 1870.78 585.121L1869.21 585.634C1862.89 582.559 1863 576.922 1857.14 571.407L1859.25 567.829C1856.32 563.94 1852.01 562.86 1849.72 558.317C1852.03 553.722 1857.99 556.313 1861.96 552.459L1861.62 550.635C1857.3 547.887 1856.83 550.849 1853.13 549.091C1853.27 547.127 1853.32 546.428 1853.1 544.431C1848.63 542.1 1844.64 548.17 1841.81 542.554C1843.45 539.496 1845.02 539.664 1847.91 538.187C1852.67 535.589 1853.34 541.02 1856.76 544.059C1862.67 549.294 1866.32 546.658 1873.35 548.964C1874.45 552.179 1871.7 550.802 1871.31 555.396C1873.29 556.97 1872.38 556.652 1874.75 556.746C1876.82 554.656 1877.15 551.977 1877.75 549.281C1877.89 548.856 1878.06 544.44 1877.98 544.423C1870.64 542.812 1849.45 537.786 1851.15 527.155C1855.29 525.113 1865.88 529.325 1870.5 526.537C1870.44 520.947 1857.73 526.673 1851.6 520.04L1851.82 518.138C1853.61 516.164 1855.36 513.746 1857.89 513.13L1864.18 518.395C1870.15 518.185 1879.65 508.742 1885.97 512.592C1887.05 513.247 1888.58 514.518 1889.65 515.306C1893.2 510.064 1896.71 501.792 1902.56 498.461C1904.25 497.497 1901.31 488.197 1891.94 489.156C1874.28 490.963 1854.95 495.83 1837.22 498.364C1835.89 498.548 1835.01 496.632 1834.31 495.61C1836.43 491.015 1840.82 493.156 1843.58 486.654L1841.63 485.936C1836.75 486.673 1838.27 485.787 1835.25 489.165C1829.45 485.915 1826.77 489.071 1822.76 487.443C1825.08 482.443 1832.1 484.939 1836.13 482.58C1836.97 482.087 1837.11 477.916 1837.32 476.381L1839.48 475.518C1841.01 477.418 1842.56 479.712 1844.72 480.729C1848.77 477.329 1852.62 474.025 1856.96 470.968C1862.63 471.104 1862.91 473.557 1868.55 474.935C1872.38 473.179 1872.43 469.057 1874.09 468.031C1879.22 464.862 1876.77 473.121 1884.59 466.027C1889.83 466.883 1887.99 467.995 1893.04 470.945C1899.05 467.563 1893.07 462.471 1903.98 464.894C1905.45 465.219 1907.71 460.204 1909.78 461.23C1918.3 465.448 1915.59 461.032 1922.1 458.574C1931.79 463.164 1946.96 454 1957.69 453.859C1969.37 458.765 1968.23 450.594 1971.48 451.133C1981.39 452.777 2012.65 442.411 2019.13 443.607C2029.85 445.588 2025.11 439.668 2029.47 440.857C2040.72 443.925 2064.34 430.056 2074.23 434.291C2075.08 433.75 2079.21 430.392 2078.74 430.501C2085.25 429.01 2091.89 427.579 2098.37 425.853C2124.39 418.917 2154.23 410.991 2177.07 396.457C2182.82 392.793 2194.91 376.736 2194.69 368.699C2194.5 361.881 2193.91 355.812 2187.8 350.891C2182.12 346.318 2171.11 348.017 2164.49 345.605C2155.52 342.334 2146.52 337.104 2137.94 333.187C2114.36 322.43 2094.91 316.12 2077.76 295.143C2070.1 285.769 2064.92 276.766 2058.02 267.056C2045.72 249.742 2017.85 221.334 2020.47 198.956C2022.58 180.942 2033.14 162.959 2047.67 151.622C2054.16 146.557 2065.55 137.531 2074.07 135.132C2073.79 135.211 2081.2 136.063 2082.07 136.146C2084.52 135.104 2085.27 134.243 2086.38 131.781C2089.82 124.195 2098.9 129.009 2107.38 126.557C2108.09 124.707 2108.28 123.754 2108.7 121.843C2116.67 117.658 2123.91 126.426 2130.67 115.606C2134.53 113.363 2140.33 114.429 2143.38 113.189C2153.74 108.971 2164.44 105.394 2174.83 101.2C2176.18 100.654 2185.46 101.698 2187.55 101.219C2190.37 100.57 2195.69 95.3602 2198.17 95.0534C2203.71 94.3696 2211.22 94.8856 2216.67 94.0049C2219.95 93.4748 2224.94 88.2089 2229.07 87.4187C2248.48 83.7026 2267.91 80.6902 2287.51 79.4978Z"/><path fill="#FFFEFE" d="M2099.39 560.55C2103.32 561.23 2105.35 561.568 2106.55 565.346C2105.58 568.542 2103.73 569.33 2100.93 571.107L2100.97 571.833L2099.97 572.963L2097.64 572.685L2096.58 571.019C2095.85 567.057 2097.67 564.22 2099.39 560.55Z"/><path fill="red" d="M1471.23 74.0027C1477.17 73.7466 1493.2 76.1106 1500.67 76.687C1528.13 78.6379 1555.56 80.8466 1582.98 83.3128C1619.94 86.4173 1659.23 83.7581 1696.44 86.4187C1698.44 86.5615 1700.73 91.1522 1701.97 92.9017C1708.5 93.944 1708.06 91.9785 1711.75 88.4989C1715.83 83.7982 1731.89 92.9255 1734.75 91.8553C1748.84 86.4573 1748.93 84.6351 1759.96 95.7473C1760.55 96.3421 1772.59 97.1983 1775.29 94.8617L1774.23 91.8161C1778.02 88.8668 1786.11 94.2782 1792.4 95.3546C1806.43 97.7587 1885.04 89.1378 1890.34 94.2598C1888.73 96.1226 1888.13 95.7308 1885.21 96.4555C1882.45 100.107 1885.4 99.1318 1884.1 103.283C1880.59 104.915 1871.26 107.447 1870.71 111.863C1868.73 127.641 1885.26 114.476 1889.17 122.423C1888.37 124.323 1887.72 125.6 1886.74 127.411C1890.12 128.369 1890.79 127.947 1892.77 130.384L1892.45 131.703C1889.15 135.203 1888.24 132.459 1883.94 134.934C1888.69 141.011 1893.36 132.638 1901.56 137.013L1901.83 138.699C1897.97 142.331 1892.27 139.952 1889.3 143.656C1889.95 145.677 1890.56 147.059 1891.42 148.993C1889.98 152.136 1886.19 152.684 1882.19 154.27C1883.76 155.111 1888.13 154.433 1890.56 154.381L1890.51 155.739C1885.62 160.169 1859.33 166.036 1851.17 168.826C1840.58 172.477 1830.07 176.365 1819.65 180.49C1812.13 183.549 1808.9 187.223 1800.86 185.695C1797.32 188.226 1800.59 189.359 1798.03 192.335L1795.92 191.846C1795 189.739 1794.86 189.451 1793.22 187.811L1790.57 188.069C1787.3 190.817 1789.77 189.41 1788.75 194.766C1784.48 197.448 1787.18 193.597 1781.91 194.397C1777.9 204.046 1767.28 190.934 1759.42 197.867C1755.03 201.745 1750.76 197.187 1748.68 197.761C1743.49 199.196 1740.91 209.531 1734.53 210.968C1731.28 208.072 1733.94 205.799 1731.42 202.805C1726.35 202.75 1725.53 206.735 1724.29 206.545C1719.19 205.764 1712.41 203.968 1706.89 205.088L1705.89 207.023L1707.25 210.563C1702.56 215.738 1694.97 211.782 1690.18 219.783C1680.98 223.969 1680.92 217.628 1673.33 219.721C1670.5 220.502 1672.56 223.656 1668.47 225.643C1668.23 223.873 1668.08 222.42 1667.96 220.637C1661.95 218.283 1643.44 218.443 1638.38 222.828L1639.03 224.568C1643.79 224.48 1652.97 224.202 1657.33 225.167C1652.73 234.403 1638.12 224.829 1628.42 226.461C1615.87 228.572 1618.12 240.013 1606.21 246.031C1604.55 246.869 1606.33 264.948 1594.61 268.393C1594.4 267.059 1594.22 265.394 1593.73 264.171C1588.72 265.392 1591.29 273.812 1591.94 277.862C1588.42 281.75 1583.09 283.902 1578.31 286.393C1577.16 290.781 1579.48 293.204 1579.81 298.446C1577.02 301.726 1572.12 302.266 1567.63 303.572C1569.68 305.733 1570.45 306.562 1572.04 309.067C1570.06 310.945 1562.35 310.264 1558.27 310.52L1557.97 311.999C1560.43 313.287 1561.01 313.56 1562.91 315.556L1562.81 317.785C1561.21 320.908 1557.83 321.991 1554.59 323.507C1555.73 325.391 1556.46 326.272 1556.49 328.478C1550.36 334.415 1543.23 339.866 1536.36 344.948C1530.55 349.254 1519.31 342.673 1514.6 349.649C1516.27 353.908 1523.41 355.798 1527.42 354.679L1528.54 355.587C1525.62 361.168 1517.43 356.736 1515.02 362.575C1517.21 363.621 1519.18 364.212 1520.1 366.409C1518.25 370.989 1512.32 367.918 1512.1 374.558C1514.89 375.074 1514.76 374.586 1516.38 376.283L1515.41 377.268C1509.51 377.642 1504.71 389.978 1503.13 390.287C1493.92 392.093 1494.65 398.26 1488.78 404.515C1486.33 407.123 1480 405.023 1476.45 408.917C1476.4 412.557 1480.17 410.552 1481.18 415.082C1478.99 417.57 1477.84 417.337 1474.41 418.443C1472.91 421.786 1475.55 424.799 1474.1 426.106C1467.55 432.03 1467.97 430.188 1464.5 438.588C1462.4 438.634 1460.3 438.733 1458.21 438.885C1446.79 445.423 1455.46 444.731 1456.33 450.983C1451.5 452.922 1445.22 455.458 1441.79 459.386C1442.86 462.941 1446.4 460.941 1448.84 464.454C1447.31 466.298 1436.95 463.712 1434.13 473.826C1435.85 475.175 1436.37 475.639 1437.82 477.292C1434.5 483.721 1419.18 480.423 1415.02 488.203C1418.39 489.166 1417.89 488.521 1420.06 490.784L1419.89 493.791C1415.92 496.614 1408.06 484.591 1402.3 493.676L1402.99 495.248C1408.68 495.524 1408.28 494.882 1411.49 499.387C1415.04 499.279 1420.66 497.97 1422.13 498.363C1421.33 501.987 1412.64 503.63 1410.25 505.91L1411.85 507.408C1411.79 509.395 1409.33 508.9 1407.14 509.407C1403.99 510.674 1391.27 512.134 1388.95 513.558C1383.1 517.156 1373.16 514.836 1369.75 518.549L1370.32 519.793L1372.66 520.497C1376.21 518.326 1395.43 518.416 1400.7 518.545L1401.91 520.892C1397.77 523.182 1383.54 521.688 1381.43 530.248C1383.78 531.235 1395.66 529.096 1397.37 527.337L1397.04 531.419C1394.45 534.155 1394.04 532.872 1389.07 533.408L1388.68 536.487C1385.66 538.365 1381 535.248 1377.26 537.274C1377.74 541.935 1380.88 538.357 1384.97 542.504L1383.64 544.233C1378.64 544.937 1380.58 541.776 1375.01 541.789C1372.51 544.156 1373.15 543.023 1372.89 546.928C1371.64 549.772 1369.71 550.545 1367.04 552.088L1366.8 553.982L1368.36 555.107C1373.84 554.255 1371.97 549.99 1378.15 546.171L1379.63 546.994C1381.09 557.873 1373.17 555.954 1372 558.403C1368.12 566.558 1365.06 572.174 1359.43 579.607C1351.81 589.65 1351.89 583.06 1342.68 585.874C1340.83 586.452 1339.7 585.718 1338.44 584.79C1339.02 576.194 1360.48 550.291 1360.55 547.479C1350.34 541.664 1348.35 562.484 1338.21 557.564C1339.12 552.032 1342.22 553.389 1342.49 548.804L1340.57 548.199C1334.05 549.264 1334.2 550.2 1333.47 555.82C1331.16 558.045 1330.76 558.376 1327.69 559.204L1326.34 558.233L1326.9 555.031C1326.09 551.77 1322.88 549.002 1320.47 546.488L1320.54 544.999C1324.25 542.487 1329.16 545.972 1331.75 543.934C1327.34 539.472 1329.74 536.618 1329.15 530.434C1329.01 528.942 1332.74 525.389 1332.61 521.691L1331.02 521.054C1327.15 522.392 1325.71 531.411 1319.82 532.455C1317.93 531.104 1317.74 529.701 1317.06 527.466C1318.86 524.143 1320.3 521.149 1322.46 518.024C1320.25 512.619 1323.77 512.751 1322.32 508.235L1320.18 507.894C1319.39 509.296 1318.74 510.559 1318.03 511.993L1313.6 512.354C1312.39 513.589 1311.49 514.326 1310.17 515.396C1305.88 515.797 1309.27 514.165 1305.73 512.385C1304.1 515.071 1302.05 520.273 1300.75 523.345C1303.59 525.176 1303.21 524.385 1304.54 527.115C1303.4 529.236 1303.1 529.379 1300.95 530.427C1294.13 527.598 1295.01 532.913 1288.38 529.527C1286.74 526.823 1287.49 523.961 1287.9 520.8L1286.99 520.888L1287.82 520.853C1282.73 522.866 1287.27 529.358 1281.07 532.165C1278.42 531.619 1278.08 531.528 1276.23 529.577C1276.02 524.963 1278.01 524.016 1279.92 518.974L1279 517.479C1276.3 516.017 1275.72 515.915 1272.69 516.413L1272.42 516.46C1272.95 514.965 1276.01 512.893 1277.38 512.094C1283.98 508.228 1276.83 505.134 1278.7 499.078C1279.21 497.425 1281.43 493.45 1282.89 492.234C1292.64 484.125 1286.54 469.916 1298.36 464.986C1299.96 461.016 1298.67 460.74 1298.45 455.762C1303.55 449.38 1301.02 444.773 1305.5 439.992C1306.75 438.663 1311.76 440.789 1312.82 435.031C1310.96 433.899 1310.18 433.732 1308.13 433.118C1307.8 430.394 1307.53 431.436 1309.14 429.219L1314.64 428.686C1317.56 424.637 1312.81 426.831 1313.75 420.035C1315.64 416.818 1318.57 416.171 1322.41 414.21L1323.02 412.025L1320.15 408.073C1319.97 400.554 1328.98 396.198 1331.84 390.329C1333.06 387.822 1330.88 383.687 1334.61 379.2C1336.34 379.749 1336.75 379.953 1338.57 379.562L1339.25 377.916L1336.33 374.975L1336.45 373.58C1338.35 372.652 1338.74 372.595 1340.86 372.556L1341.39 372.55C1343.04 367.7 1339.15 366.351 1340.93 363.485C1342.34 361.197 1348.95 357.374 1351.47 355.547C1352.3 354.947 1350.99 349.59 1350.99 349.603C1354.06 343.06 1356.49 334.806 1359.24 328.236C1359.16 328.422 1365.57 324.133 1365.6 323.823C1365.89 320.829 1366.17 318.755 1367.41 316.138C1368.9 313.01 1372.93 310.163 1374.61 307.748C1376.69 304.756 1379.11 297.944 1380.41 294.423L1378.23 292.147C1378.78 288.817 1384.93 288.723 1387.39 285.758C1389.32 283.437 1391.32 278.007 1392.48 275.139C1398.04 270.958 1398.38 274.059 1401.41 264.4C1406.45 248.294 1415.57 237.235 1427.13 225.334C1430.66 221.702 1430.91 221.86 1430.58 217.012C1433.95 212.495 1442.01 216.862 1443.58 210.475C1435.6 200.419 1387.8 208.564 1374.33 206.791C1373.41 206.67 1372.83 203.767 1369.23 203.334C1363.07 208.339 1367.52 212.249 1354.85 211.387C1333.17 209.913 1334.88 203.418 1322.05 189.79C1319.45 187.027 1311.15 190.783 1303.4 181.918C1300.72 176.073 1317.55 124.385 1319.98 116.481C1323.39 105.41 1333.23 101.573 1343.08 97.5235C1345.77 96.419 1355.23 88.5163 1357.44 88.0191C1376.26 83.7863 1393.11 80.0368 1412.51 77.1408C1430.58 74.4413 1453.88 77.9226 1470.92 74.1548C1471.02 74.1041 1471.13 74.0534 1471.23 74.0027Z"/><path fill="#FFFEFE" d="M1382.91 499.596C1384.48 499.916 1386.22 501.3 1387.62 502.24L1387.3 504.335C1377.99 514 1374.44 508.624 1363.88 513.044C1363.45 513.522 1362.72 513.593 1361.99 513.813C1360.7 512.038 1361.06 512.669 1361.22 510.078C1364.8 506.125 1369.7 507.538 1374.34 505.489C1375.53 504.961 1381.46 500.626 1382.91 499.596Z"/><path fill="#FFFEFE" d="M1337.87 407.627C1338.81 408.006 1339.62 409.173 1340.31 409.979L1343.91 409.716L1344.95 410.938L1338.58 423.679L1336.96 424.602L1336.2 423.53L1337.84 418.457C1336.7 415.247 1335.93 417.884 1332.44 414.9C1333.58 410.948 1334.71 410.769 1337.87 407.627Z"/><path fill="#FFFEFE" d="M1376.47 416.47C1379.36 417.904 1379.39 420.53 1379.22 423.238C1377.51 426.661 1375.34 427.472 1372.02 429.283L1370.65 428.462C1370.43 424.707 1374.12 419.297 1376.47 416.47Z"/><path fill="red" d="M1029 73.5C1049.69 68.6942 1083.76 82.2859 1102.71 91.1177C1127.27 100.921 1124.01 112.009 1118.02 135.038C1116.47 140.985 1113.59 155.61 1111.82 162.36C1110.86 166.007 1106.7 166.667 1103.58 168.482C1102.98 172.179 1106.14 170.449 1107.61 176.116C1104.74 180.956 1102.26 178.826 1098.66 183.05C1099.51 184.141 1100.62 184.717 1101.8 185.474L1102.15 187.99C1099.81 191.326 1098.52 191.161 1094.48 193.043C1094.29 196.679 1097.43 194.075 1097.97 199.408C1092.9 206.815 1089.92 200.565 1084.53 203.387L1084.31 205.372C1087.79 208.287 1088.98 205.361 1093.1 208.392L1093.19 210.531C1091.27 214.119 1090.07 213.756 1085.56 215.372C1082.6 218.779 1084.72 223.712 1083.81 225.36C1081.46 229.628 1065 227.12 1062.37 234.574C1067.01 234.82 1070.43 234.895 1074.96 235.952C1074.3 238.542 1069.48 237.764 1066.76 240.53C1069.01 243.199 1069.21 242.654 1069.77 245.677C1066.14 255.102 1051.32 264.877 1052.91 274.08L1053 274.536C1052.02 276.68 1046.04 279.753 1043.24 281.921C1041.22 286.782 1038.13 291.173 1035.51 295.731C1035.12 296.407 1036.03 299.808 1036.24 300.8C1026.63 316.639 1020.84 299.744 1011.76 310.985C1013.43 312.776 1018.32 312.611 1021.9 314.445L1021.01 316.261C1017.22 318.49 1009.99 318.668 1004.79 319.915L1003.9 321.526C1006.75 324.949 1010 323.136 1013.08 326.963C1008.18 333.231 1003.58 325.83 997.195 329.988C998.981 332.193 1000.31 333.428 1002.39 335.37L1002.18 337.072C999.159 338.967 988.6 339.721 983.58 341.15L982.402 343.632C983.333 346.987 985.199 347.696 988.097 350.457C982.913 357.038 981 353.224 973.1 355.361C970.816 358.406 975.943 357.849 975.744 362.173C969.346 364.214 968.292 359.498 963.394 361.711C956.403 368.904 964.685 372.567 963.399 379.347L961.687 380.448C959.253 380.072 957.094 377.177 955.304 375.265C952.157 375.551 950.583 377.414 947.662 379.483C948.979 382.339 950.581 378.741 954.827 383.638C955.293 387.631 955.558 386.203 954.139 389.692C948.991 390.657 947.311 383.709 942.965 388.851C942.445 392.778 942.211 391.31 943.767 394.84C947.099 396.521 946.259 395.829 950.599 394.623L950.709 396.719C945.239 402.802 945.001 398.724 937.84 399.364C935.553 400.828 935.096 401.044 933.727 403.359L937.012 403.093C940.538 404.822 941.174 406.489 941.201 410.174C938.782 413.922 936.116 413.837 931.969 413.404C927.925 415.574 928.541 421.384 923.355 423.807C918.159 426.235 918.661 425.029 915.473 421.132L913.792 421.729C910.05 428.882 919.41 430.25 919.059 439.362C914.353 451.488 892.378 442.039 890.886 452.307C892.779 453.405 900.988 452.805 904.506 453.036L904.585 454.216C896.149 462.182 886.247 455.056 882.946 464.181C885.447 465.87 890.587 465.138 895.004 466.224L895.405 467.66L893.14 470.566C888.78 471.976 881.22 467.246 874.853 467.897C871.593 470.438 868.093 475.658 870.647 479.631C876.405 478.358 876.171 474.671 878.581 471.904C881.781 474.297 884.167 474.898 887.667 477.272L887.573 478.967C883.294 483.963 873.661 479.345 870.533 487.083C872.73 489.421 876.156 488.149 878.42 490.906C877.599 496.081 866.707 498.074 863.562 500.984C861.094 503.266 857.557 510.806 856.161 514.015C857.169 515.359 857.883 516.213 858.994 517.456C853.139 523.22 851.48 515.79 846.629 530.761C845.598 533.942 824.405 540.745 822.965 547.554C826.645 548.999 836.295 542.905 841.844 545.693C841.867 547.913 839.096 550.7 837.503 552.17C831.59 557.624 827.57 550.833 821.86 549.845C820.157 549.55 818.566 553.472 816.928 555.129L814.545 553.131L812.706 554.279L809.776 555.635C807.776 554.459 804.389 554.325 801.883 553.948L801.029 552.56C806.062 544.579 809.99 553.161 818.582 548.625C820.678 544.019 829.05 531.06 828.354 527.681C825.105 526.13 821.154 526.936 818.363 528.943L818.112 531.221C819.771 531.467 820.01 531.394 821.19 532.479C821.081 533.174 813.935 544.166 813.367 544.733C808.969 546.388 801.232 545.921 796.422 545.519C796.148 540.674 805.734 538.416 803.24 529.191L801.59 528.732L799.026 530.402L798.419 529.801C799.229 526.74 798.911 526.096 800.971 523.948L804.289 524.92C805.965 523.372 807.036 520.561 805.694 518.565L804.274 519.456C804.104 514.191 812.656 500.519 810.796 494.455C807.473 494.024 801.125 500.441 799.767 499.848C786.592 494.101 789.492 496.202 780.931 506.569L780.039 505.514C781.263 502.4 781.825 501.693 779.196 499.519C777 499.424 776.488 499.479 774.488 498.476L775.127 496.143C782.611 492.163 803.346 495.326 806.13 491.054C801.073 487.391 774.017 488.136 764.942 487.234C762.808 482.874 760.892 478.361 762.027 473.474C764.587 470.549 763.788 471.378 768.101 470.541C766.389 467.579 766.122 466.968 765.892 463.562C767.895 460.582 768.608 462.306 773.615 460.434C774.815 457.917 774.711 458.959 774.284 456.206L770.917 458.719L769.923 457.381C770.014 449.449 770.78 452.435 773.915 444.857L773.076 443.217C770.988 443.26 769.501 443.648 767.474 444.086L766.227 442.486C766.323 439.212 765.856 440.37 768.137 437.93C771.7 437.32 770.417 437.325 774.096 438.87C777.225 437.549 780.089 430.106 779.251 426.434L781.58 423.759L781.061 422.103L778.734 422.309C775.275 420.203 776.015 421.326 774.991 417.905C776.896 414.405 788.114 417.667 788.185 408.075C785.134 406.324 784.056 407.873 779.589 406.951L779.117 404.585C782.66 398.681 789.913 403.915 794.706 400.728C793.845 396.471 787.727 395.764 787.068 391.289C792.225 387.998 795.377 392.547 800.674 386.759L800.352 385.383C797.852 384.655 795.38 383.836 792.941 382.927L792.333 381.188C795.874 376.128 794.953 373.888 796.204 369.571C796.681 367.923 807.447 366.061 809.525 364.833C811.599 363.606 812.336 357.83 813.846 356.354C816.451 353.807 821.146 353.328 824.197 350.471L823.249 349.153C817.427 346.386 812.596 348.014 809.985 345.026L810.494 342.792C817.064 338.083 824.406 344.29 829.034 335.895C827.109 330.618 820.403 335.042 816.699 331.792L817.792 329.794C820.813 328.707 819.635 328.822 823.098 330.119L825.272 328.491C826.811 324.171 823.468 326.862 822.899 320.647C827.442 311.95 828.71 317.625 832.865 314.353C833.477 309.34 828.558 310.011 830.745 305.204C833.001 304.265 834.104 304.03 836.489 303.504C835.906 298.457 834.582 295.346 838.807 291.997L843.169 292.99C845.483 289.936 844.322 281.09 845.375 280.333C859.597 270.111 864.137 270.195 864.468 251.037C864.497 249.362 875.168 248.544 876.241 247.166C880.622 241.543 877.726 240.79 883.802 234.969C883.986 230.671 881.123 233.968 880.094 229.094C884.525 223.189 902.418 230.436 896.92 207.846C895.878 203.563 908.516 199.566 910.844 197.509C913.295 195.341 909.537 194.341 909.738 189.873C910.589 188.372 912.215 187.241 913.888 187.016C922.09 185.913 920.963 171.469 928.187 168.954C934.14 180.811 940.035 163.435 939.755 162.42C937.376 162.91 935.937 163.29 933.506 163.231C933.667 160.366 936.115 158.037 938.786 157.352L942.692 159.687L943.391 158.015L940.997 153.639C941.436 150.114 980.977 104.404 986.856 97.0041C991.348 91.3497 994.933 85.0349 999.316 79.3262C1000.09 78.319 1001.75 76.2696 1002.83 75.6467C1006.06 73.7874 1023.83 74.1429 1029 73.5Z"/><path fill="#FFFEFE" d="M859.134 394.372L861.932 396.338L862.747 401.192L863.835 401.663L865.53 398.994C870.419 396.864 872.749 398.605 874.512 403.248C874.076 406.365 873.622 406.791 871.404 409.105L869.894 408.976L867.656 404.167L866.657 404.013C864.158 406.805 863.527 408.719 864.08 412.286L865.856 413.389L869.725 411.744L869.92 414.52C866.528 420.078 856.959 422.076 851.143 418.706L851.265 417.257L857.926 412.494C859.216 409.776 859.542 410.256 858.933 407.951L855.198 408.61L854.321 407.548C855.379 403.43 857.526 398.424 859.134 394.372Z"/><path fill="#FFFEFE" d="M891.236 356.98C891.743 356.862 892.302 357.254 892.899 357.518C892.928 358.187 892.935 358.77 892.903 359.443C892.483 367.718 888.785 375.486 882.625 381.028C878.521 384.787 871.714 387.357 867.414 382.662C872.364 379.151 871.731 383.827 877.596 378.815C878.673 372.85 873.937 373.308 876.052 367.901C880.943 364.8 878.753 367.743 884.353 366.395L884.94 364.573L882.847 360.64C884.276 356.938 886.168 360 891.236 356.98Z"/><path fill="#FFFEFE" d="M931.13 348.994C934.554 348.729 935.669 349.414 936.911 352.417C937.085 358.434 928.351 366.775 924.198 372.097C921.509 373.056 922.512 373.14 920.09 372.109C917.488 371.623 916.124 371.612 914.373 369.688C916.201 365.634 924.325 365.645 923.907 360.891L920.877 359.304L921.017 357.231C923.661 353.05 926.83 352.015 931.13 348.994Z"/><path fill="#FFFEFE" d="M847.162 484.474C850.064 484.989 850.17 484.481 851.609 486.254C850.606 490.802 846.17 499.873 842.439 502.542L837.925 498.591C837.097 494.965 842.609 493.647 844.992 491.159C845.006 491.145 846.997 484.98 847.162 484.474Z"/><path fill="#FFFEFE" d="M804.924 453.217L808.152 454.123L808.911 455.58C806.853 459.968 804.626 463.63 802.711 467.868C801.003 471.65 801.408 470.697 797.212 472.39C795.805 472.128 795.246 471.417 794.174 470.457C799.846 463.595 802.503 461.914 804.924 453.217Z"/><path fill="#FFFEFE" d="M853.005 422.745C855.711 424.039 855.098 423.328 856.712 425.665C856.19 428.924 853.069 431.467 850.671 433.92C847.973 432.784 846.776 429.566 846.595 426.837C848.721 423.295 848.282 424.265 853.005 422.745Z"/><path fill="#FFFEFE" d="M855.915 466.395C857.924 466.976 858.47 467.667 860.002 469.072C859.95 473.192 858.469 474.227 856.123 478.229C853.848 478.194 853.395 478.229 851.21 477.427C850.629 473.892 853.787 470.036 855.915 466.395Z"/><path fill="#FFFEFE" d="M914.845 375.155C917.007 377.678 916.563 376.583 917.115 379.666C915.821 381.721 912.87 381.913 909.423 384.616L907.204 384.035L907.19 382.259C909.139 379.006 911.8 377.395 914.845 375.155Z"/><path fill="#FFFEFE" d="M860.898 457.217C863.537 457.873 864.931 457.949 866.469 460.119C865.776 463.493 864.794 463.618 862.131 466.374L860.909 467.62C858.141 464.736 859.648 460.382 860.898 457.217Z"/><path fill="red" d="M1824.65 495.512L1828.4 494.646L1829.74 497.083L1828.91 494.795L1830.25 495.355C1831.18 501.734 1814.5 502.706 1809.12 503.801C1806.03 504.075 1803.93 504.331 1800.8 504.051L1800.87 502.639C1805.8 498.415 1818.05 495.98 1824.65 495.512Z"/><path fill="red" d="M798.536 503.837C801.008 503.818 801.642 503.688 803.751 504.941C801.304 507.962 796.881 509.466 795.037 513.209C794.219 514.87 792.356 517.576 791.287 519.259C790.131 513.319 792.532 516.625 789.06 509.211C790.351 506.651 793.689 507.403 798.536 503.837Z"/><path fill="red" d="M1975.35 576.658C1979.77 579.93 1980.39 587.022 1977.55 591.646C1973.28 589.432 1972.48 589.035 1971.34 584.548C1972.17 580.411 1972.68 579.743 1975.35 576.658Z"/><path fill="red" d="M1844.58 517.423C1847.27 518.098 1846.44 517.557 1848.44 519.437C1849.33 524.23 1848.59 529.06 1843.37 530.542C1841.18 529.433 1840.52 529.225 1838.99 527.317C1839.51 524.927 1841.43 523.58 1843.26 521.949C1843.31 520.11 1843.88 519.083 1844.58 517.423Z"/><path fill="red" d="M2056.1 570.554C2062.23 572.038 2062.14 583.753 2061.66 588.814C2055.17 586.156 2056.53 576.658 2056.1 570.554Z"/><path fill="red" d="M771.703 505.61C773.414 505.664 774.16 505.602 775.793 506.276C776.267 508.987 772.992 513.278 771.234 516.533L770.955 517.265L769.528 517.806L768.506 516.542C768.304 512.734 769.221 508.587 771.703 505.61Z"/></svg>